# xmcd
#
# Track frame offsets: 
#        150
#        16212
#        32700
#        49041
#        56823
#        74751
#        91573
#        107643
#        112913
#        129000
#        145747
#        161224
#        172442
#        190024
#        211274
#
# Disc length: 3032 seconds
#
# Revision: 0
# Processed by: cddbd v1.5.2PL0 Copyright (c) Steve Scherf et al.
# Submitted via: ExactAudioCopy v1.0b3
#
DISCID=cd0bd60f
DTITLE=Petter - Början på allt
DYEAR=2013
DGENRE=Hip-hop, Rap
TTITLE0=Mighty med Newkid 
TTITLE1=Början på allt med Eye-N-I 
TTITLE2=Natt and dag med Chords 
TTITLE3=April 
TTITLE4=Håll om mig med Daniel Adams-Ray
TTITLE5=Tills döden skiljer oss åt 
TTITLE6=King med Lilla Namo 
TTITLE7=Maj 
TTITLE8=Arbete 
TTITLE9=Alla vet med Agnes 
TTITLE10=Fristad 
TTITLE11=Juni
TTITLE12=Sitter på en dröm 
TTITLE13=Minnen del 2 
TTITLE14=Släpp mig fri 
EXTD=
EXTT0=
EXTT1=
EXTT2=
EXTT3=
EXTT4=
EXTT5=
EXTT6=
EXTT7=
EXTT8=
EXTT9=
EXTT10=
EXTT11=
EXTT12=
EXTT13=
EXTT14=
PLAYORDER=
